<?xml version="1.0" standalone="no"?>
<!DOCTYPE svg PUBLIC "-//W3C//DTD SVG 20010904//EN"
 "http://www.w3.org/TR/2001/REC-SVG-20010904/DTD/svg10.dtd">
<svg version="1.0" xmlns="http://www.w3.org/2000/svg"
 width="512.000000pt" height="512.000000pt" viewBox="0 0 512.000000 512.000000"
 preserveAspectRatio="xMidYMid meet">

<g transform="translate(0.000000,512.000000) scale(0.100000,-0.100000)"
fill="#000000" stroke="none">
<path d="M1704 4115 c-407 -74 -720 -361 -820 -754 -77 -300 -12 -625 175
-871 27 -36 368 -383 758 -772 665 -665 710 -708 743 -708 33 0 77 43 733 698
384 383 721 726 748 762 69 91 145 247 176 365 36 137 38 354 5 488 -73 292
-260 533 -519 669 -170 89 -336 125 -532 115 -218 -11 -388 -75 -588 -223 -22
-15 -25 -14 -90 35 -227 171 -524 244 -789 196z m353 -181 c155 -32 284 -96
402 -198 85 -74 109 -75 188 -5 87 76 201 142 311 180 95 33 100 34 267 33
160 0 175 -2 255 -28 160 -53 261 -117 376 -239 231 -242 296 -588 173 -909
-63 -162 -82 -184 -800 -903 l-669 -670 -669 670 c-721 722 -737 740 -801 907
-79 204 -80 425 -4 627 80 213 274 410 484 490 155 60 335 77 487 45z"/>
</g>
</svg>
